REM Generated by IcecastMetadataRecorder
REM 2020-07-29T21:16:11.222Z
TITLE "isics-all"
FILE "isics-all.mp3" WAVE
  TRACK 1 AUDIO
    TITLE "2020-07-29T21:34:04.342Z TO:24605 Dallas County Law 1 FROM:2559984"
    INDEX 01 17:53:09
  TRACK 2 AUDIO
    TITLE "2020-07-29T21:34:06.422Z TO:1101 Polk County - Westcom Law Enforcement 1 FROM:8633"
    INDEX 01 17:55:15
  TRACK 3 AUDIO
    TITLE "2020-07-29T21:34:08.534Z TO:1101 Polk County - Westcom Law Enforcement 1 FROM:1004"
    INDEX 01 17:57:23
  TRACK 4 AUDIO
    TITLE "2020-07-29T21:34:10.646Z TO:1101 Polk County - Westcom Law Enforcement 1 FROM:8633"
    INDEX 01 17:59:31
  TRACK 5 AUDIO
    TITLE "2020-07-29T21:34:14.838Z TO:1101 Polk County - Westcom Law Enforcement 1 FROM:1004"
    INDEX 01 18:03:46
  TRACK 6 AUDIO
    TITLE "2020-07-29T21:34:16.950Z TO:24605 Dallas County Law 1 FROM:2500048"
    INDEX 01 18:05:54
  TRACK 7 AUDIO
    TITLE "2020-07-29T21:34:20.438Z TO:24605 Dallas County Law 1 FROM:2559981"
    INDEX 01 18:09:16
  TRACK 8 AUDIO
    TITLE "2020-07-29T21:34:22.550Z TO:48696 Polk County - UnityPoint Health Security FROM:10779039"
    INDEX 01 18:11:24
  TRACK 9 AUDIO
    TITLE "2020-07-29T21:34:25.334Z TO:48696 Polk County - UnityPoint Health Security FROM:120"
    INDEX 01 18:14:08
  TRACK 10 AUDIO
    TITLE "END"
    INDEX 01 18:16:17